inDegrees=no
num_controls=7
num_derivatives=13
num_iterations=143
num_multipliers=7
num_parameters=0
num_slacks=7
num_states=26
objective=6.141103
objective_accelerations=0.523493
objective_balance=0.035357
objective_effort=0.484805
objective_height=5.048760
objective_ligament=0.048688
solver_duration=1270.333755
status=Solve_Succeeded
success=true
DataType=double
version=3
OpenSimVersion=4.4-2022-07-23-0e9fedc
endheader
time	/jointset/ground_pelvis/pelvis_tilt/value	/jointset/ground_pelvis/pelvis_tx/value	/jointset/ground_pelvis/pelvis_ty/value	/jointset/hip_r/hip_flexion_r/value	/jointset/hip_r/hip_adduction_r/value	/jointset/hip_r/hip_rotation_r/value	/jointset/back/lumbar_extension/value	/jointset/patellofemoral_r/patellar_flexion_r/value	/jointset/knee_r/knee_flexion_r/value	/jointset/knee_r/knee_adduction_r/value	/jointset/knee_r/knee_rotation_r/value	/jointset/ankle_r/ankle_angle_r/value	/jointset/subtalar_r/subtalar_angle_r/value	/jointset/ground_pelvis/pelvis_tilt/speed	/jointset/ground_pelvis/pelvis_tx/speed	/jointset/ground_pelvis/pelvis_ty/speed	/jointset/hip_r/hip_flexion_r/speed	/jointset/hip_r/hip_adduction_r/speed	/jointset/hip_r/hip_rotation_r/speed	/jointset/back/lumbar_extension/speed	/jointset/patellofemoral_r/patellar_flexion_r/speed	/jointset/knee_r/knee_flexion_r/speed	/jointset/knee_r/knee_adduction_r/speed	/jointset/knee_r/knee_rotation_r/speed	/jointset/ankle_r/ankle_angle_r/speed	/jointset/subtalar_r/subtalar_angle_r/speed	/forceset/tau_hip_flexion_r	/forceset/tau_hip_adduction_r	/forceset/tau_hip_rotation_r	/forceset/tau_knee_flexion_r	/forceset/tau_ankle_angle_r	/forceset/tau_subtalar_angle_r	/forceset/tau_lumbar_extension	lambda_cid13_p0	lambda_cid14_p0	lambda_cid14_p1	lambda_cid14_p2	lambda_cid14_p3	lambda_cid14_p4	lambda_cid14_p5	/jointset/ground_pelvis/pelvis_tilt/accel	/jointset/ground_pelvis/pelvis_tx/accel	/jointset/ground_pelvis/pelvis_ty/accel	/jointset/hip_r/hip_flexion_r/accel	/jointset/hip_r/hip_adduction_r/accel	/jointset/hip_r/hip_rotation_r/accel	/jointset/back/lumbar_extension/accel	/jointset/patellofemoral_r/patellar_flexion_r/accel	/jointset/knee_r/knee_flexion_r/accel	/jointset/knee_r/knee_adduction_r/accel	/jointset/knee_r/knee_rotation_r/accel	/jointset/ankle_r/ankle_angle_r/accel	/jointset/subtalar_r/subtalar_angle_r/accel	gamma_cid13_p0	gamma_cid14_p0	gamma_cid14_p1	gamma_cid14_p2	gamma_cid14_p3	gamma_cid14_p4	gamma_cid14_p5
1.5	-0.1467616834346817	0.04436968099595066	0.8521533240354702	0.7725393809408378	-0.2398832177635653	-0.1129917353539353	-0.2866936073549577	0.7173489384671502	0.7173489384671522	0.06474065748681558	0.1745261880527795	0.2594287745415011	0.04203308706435847	0.3296435367460279	0.1534635469777919	0.4044895568291259	-1.739550341138972	0.03353517061217601	-0.3917769068268533	0.6994831886747002	-1.942188478525917	-1.942188478525878	0.1972650503748557	2.857654249814426e-05	-0.6217143336591376	-0.1196788003034453	-0.09011121083043437	-0.02106172426665813	0.01115515426370118	-0.3338213341690939	0.06698891477554292	-0.01100887701413585	0.1387254344101247	-30.34486044160716	-19.80061109410974	-4.163204599167583	-3.542234814793439	1.556374099519629	-655.5867286992997	58.87365161648194	0.1730256377372308	0.3671146142374368	-0.5419118151880908	-0.857576747565024	0.1027429944193399	-0.387641809852618	1.347358183339652	-1.098099862461711	-1.098099862461711	0.4693494195087362	-0.0270367588691786	-0.5051623349838589	0.06927320167115021	1.553148177064591e-07	1.081836532187037e-07	-1.453819162946369e-06	8.60778079195523e-07	9.130645168154388e-08	1.997133456752475e-07	-1.089766484676074e-06
1.51	-0.1434569304463657	0.04592245942560778	0.8561702797223781	0.7551029948422946	-0.2395434832038932	-0.1169292312135074	-0.279632604306814	0.6978746963622395	0.6978746963622076	0.06673791489106171	0.1745265182252673	0.2531869634208193	0.0408388867401402	0.3312590825089944	0.1570672803912998	0.3988168835258504	-1.747484198167135	0.03441060229588953	-0.3956952803993485	0.7126088065651296	-1.952381133121585	-1.952381133121568	0.2021810963532211	3.336392152881501e-05	-0.626556371205485	-0.1191416239088904	-0.08388093266701455	-0.02282724582614228	0.01061105001243838	-0.3302976071691398	0.07058369853382418	-0.01216723545630289	0.133019825314757	-31.465886947514	-18.49925050496736	-4.34135314951593	-3.624707515958685	1.134733950094576	-651.7916786937177	58.70209162407649	0.1486321671920681	0.3532954080383795	-0.5926073612499148	-0.7248756254198564	0.07976798752934329	-0.389661630794449	1.278871432954121	-0.9380605369445186	-0.9380605369479367	0.501738225955113	0.01377020216757854	-0.4599607656620059	0.04873543756846943	1.639477022168091e-07	1.086206893669765e-07	-1.564194254209068e-06	8.783433595866573e-07	1.019493866133468e-07	2.074284839296254e-07	-1.155952673775447e-06
1.52	-0.1401374593761078	0.04751053373002542	0.8601279762215828	0.7375945530844653	-0.2391950293809366	-0.1209050561087819	-0.2724436035115567	0.6783068852555987	0.6783068852555511	0.06878413396287049	0.1745268030147334	0.2468994846644335	0.03965061729571198	0.3325871531366307	0.1605227219298979	0.3926377192884674	-1.753961472994417	0.03527902326688222	-0.3994427139657044	0.7250827380979764	-1.960902278870265	-1.960902278870271	0.2070573838897722	1.949993569613556e-05	-0.6308478607999013	-0.118492624345503	-0.07765065450360938	-0.02459276738564486	0.01006694576128287	-0.3267738801691926	0.07417848229210063	-0.01332559389849807	0.1273142162193792	-32.56637301164219	-17.20271350591275	-4.515783552711826	-3.712985157018609	0.703493920145561	-648.0838460530717	58.59540498898683	0.115530610670712	0.3374562392558489	-0.6432100020095702	-0.5662603073891204	0.1013408518751258	-0.3534538086247758	1.21702091182289	-0.76379809306445	-0.763798093064448	0.4613977311459523	-0.03076703184180756	-0.3950527445971953	0.09163783543773463	1.720005130270575e-07	1.063404242111601e-07	-1.668137453297376e-06	8.871753329649502e-07	1.146362339854369e-07	2.069390282619949e-07	-1.213844828395317e-06
1.53	-0.136806249795314	0.04913236613985991	0.8640213879955788	0.7200288345986881	-0.2388379678188439	-0.1249176627708901	-0.2651331558188647	0.6586623982978401	0.6586623982978311	0.07087886959634455	0.1745270334773976	0.2405718914515022	0.03846936413009668	0.333605523726911	0.1638130841831404	0.3859662142396735	-1.758928714848218	0.03613087280817395	-0.403047757457658	0.7368823470395726	-1.967702803193341	-1.967702803193327	0.2118821927026227	2.290155266038595e-05	-0.6345747962095468	-0.1177397376007785	-0.07133724487473396	-0.02649241084274104	0.009494411089985626	-0.32337818787782	0.07786873458304137	-0.01459325684057816	0.1215440271149087	-33.63542814070393	-15.89217820723251	-4.739455568761221	-3.788589730491887	0.3075993822069893	-644.5404097217449	58.44347387522948	0.08761417502507149	0.3202523312442599	-0.690845386270531	-0.4239180588920732	0.0767161663449502	-0.359163195960929	1.142762874566689	-0.5943698624019941	-0.594369862399013	0.4916693151364053	0.0154901432354655	-0.3470776034688566	0.0696735124346286	1.794369955309479e-07	1.011730264197491e-07	-1.765246766950393e-06	8.867281676420993e-07	1.294947383253323e-07	1.977321915522306e-07	-1.262924571380715e-06
1.54	-0.1334663317302653	0.0507861873948032	0.8678457397930955	0.7024210513074601	-0.2384724659291092	-0.128965346583222	-0.2577084456389115	0.6389586680447493	0.6389586680447946	0.07302158268968684	0.1745272172331953	0.2342099161516102	0.03729615171561784	0.3343288499899724	0.1669204909516578	0.3788257239926222	-1.762374434082683	0.03696708879301917	-0.4064581440088246	0.7479352355507557	-1.972750937935332	-1.972750937935299	0.2166528758667454	1.015856042289474e-05	-0.6377242781920127	-0.1168844741182612	-0.06502383524587646	-0.02839205429986512	0.008921876418785037	-0.3199824955864565	0.08155898687397373	-0.01586091978269889	0.1157738380104285	-34.66751312475768	-14.58943259251229	-4.959675878626086	-3.870245653421671	-0.09099594590223722	-641.1303714251766	58.36247252159374	0.05652174522647211	0.3008651423112398	-0.7370070416610551	-0.2619557835223196	0.09821414058577536	-0.3145224204673763	1.06767682574	-0.4133201768477299	-0.413320176847723	0.4505726014005109	-0.03399595368210936	-0.2795620591607557	0.1121131829963572	1.872238193779751e-07	9.655609418433793e-08	-1.869279641494229e-06	8.860446649201345e-07	1.4360963593612e-07	1.923941294388723e-07	-1.313697450828717e-06
1.55	-0.1301207158880649	0.05247013428107251	0.8715964119725736	0.6847865102470222	-0.2380987207712149	-0.1330463633259249	-0.2501770026594679	0.6192133217098408	0.6192133217098604	0.0752116834742898	0.174527399444512	0.2278193779567032	0.03613197438533333	0.3347422430220929	0.1698345121192078	0.3712380830829444	-1.764271911413684	0.03777828025581162	-0.4097104028125466	0.7582178554024481	-1.976015431030651	-1.976015431030647	0.2213569703781516	2.28677669768494e-05	-0.6402816453720875	-0.1159335115547418	-0.05860715654358704	-0.03048169272309622	0.008309166607745506	-0.3168306007670692	0.08553218780928329	-0.01724827348435375	0.1099482654635461	-35.65696687438032	-13.21495251643087	-5.222731341239006	-3.941172828007723	-0.516865691810437	-637.9396558289287	58.25931379936852	0.02594577383095857	0.281547324361522	-0.7801987337117248	-0.1143532194286883	0.071964839437982	-0.3251074690058208	0.9882288238897224	-0.2376191664868859	-0.2376191664912612	0.4785286061607317	0.01854521212100916	-0.2285245958676759	0.08899292857121049	1.954142973812251e-07	9.25733940025788e-08	-1.981289662281836e-06	8.850888604122342e-07	1.568677692720661e-07	1.91513568490938e-07	-1.366421117940154e-06
1.56	-0.1267725265772303	0.0541821967230934	0.8752690965193366	0.6671408525109563	-0.2377169850606195	-0.137158808628408	-0.2425467986297087	0.5994444093858491	0.5994444093858579	0.07744846535001547	0.1745276369187642	0.2214063259803079	0.03497778770779248	0.3348435437193082	0.1725436021019729	0.3632281974496216	-1.76459776920628	0.03856519933108835	-0.4127438559635197	0.7676874456144172	-1.977464135750488	-1.977464135750513	0.2259890940955606	2.12111454060831e-05	-0.6422270344896308	-0.114886343569563	-0.05219047784131559	-0.03257133114635541	0.007696456796807923	-0.3136787059476933	0.08950538874458382	-0.01863562718604898	0.1041226929166554	-36.59811081342581	-11.84945164168413	-5.482432197443646	-4.018262865884074	-0.9432303641804239	-634.9019004767753	58.23027655812097	-0.005896721755060168	0.2598789053546792	-0.8214559863900317	0.05236812415851767	0.09335966308257884	-0.2707612899176117	0.9050708977950462	-0.05016250175121483	-0.05016250175121617	0.4361784426011922	-0.036869119307004	-0.1571664466539192	0.1313542673282925	2.029343930237951e-07	8.787265989773196e-08	-2.082748582595107e-06	8.805476963436084e-07	1.695168215402007e-07	1.877242847237553e-07	-1.410643464996237e-06
1.57	-0.1234249479341976	0.05592029169953348	0.8788596572690603	0.649499869614797	-0.2373275131824359	-0.1413006813699293	-0.2348259596602265	0.5796701449666353	0.5796701449666444	0.07973112363307946	0.1745279488987699	0.2149769072967702	0.03383455872122199	0.3346190308454441	0.1750375418861365	0.3548231235429129	-1.763334173600606	0.03932535149296797	-0.41559263560103	0.7763385328963661	-1.977082280021822	-1.977082280021843	0.2305272838020412	3.703951171290847e-05	-0.643552136571457	-0.113742012231818	-0.04577769585203745	-0.03475619421958496	0.00703991204952019	-0.3106490175272976	0.09357980101608125	-0.02015881390788873	0.09833727889913491	-37.48527871979665	-10.47560439848076	-5.804196653022426	-4.080280367268365	-1.3511006766099	-632.155516157964	58.13505726999695	-0.03869353659884434	0.2385114709607639	-0.8591222308094733	0.2030597755686678	0.06668338818918813	-0.2859716373620879	0.8238553348500904	0.1282871278996953	0.1282871279002414	0.4600683367238487	0.02034193466843757	-0.1044527785933707	0.1083418662804748	2.096165107155149e-07	8.227438338902553e-08	-2.171018627315457e-06	8.715248328240758e-07	1.814045224735708e-07	1.802990974325122e-07	-1.444239161983128e-06
1.58	-0.1200812074131961	0.05768219806501698	0.8823643494521173	0.6318794635740433	-0.2369305717035342	-0.1454698489751698	-0.2270228642796365	0.5599088846082467	0.5599088846082698	0.08205864963359884	0.1745283257864601	0.2085373834544847	0.03270324690788564	0.3340759193157624	0.1773058799106575	0.3460544841162506	-1.760482398123063	0.04005911947279268	-0.4182028287063164	0.7841387278365709	-1.974863323584191	-1.974863323584209	0.2349626375906158	3.419268077691955e-05	-0.644248066239134	-0.1125029089227577	-0.03936491386277668	-0.03694105729283906	0.006383367302309526	-0.3076193291069132	0.09765421328757075	-0.02168200062976305	0.0925518648816066	-38.31294683197378	-9.112076585096833	-6.122635625267906	-4.148690870199847	-1.757508178716916	-629.5846107086636	58.11650169256076	-0.0696164529191067	0.2147585534265929	-0.8941690903807537	0.3700040985321528	0.08808282667154801	-0.2230439834728462	0.7348924294458807	0.3172576400416518	0.317257640041654	0.4156112590201103	-0.04060415875551887	-0.03133196382352879	0.1503086615914209	2.163472400813024e-07	7.52415660693586e-08	-2.266891566198323e-06	8.551041461498161e-07	1.944036187749386e-07	1.712311426145295e-07	-1.475874717269638e-06
1.59	-0.116744581519534	0.05946565641462255	0.8857796331789261	0.6142955690502609	-0.2365264467367767	-0.1496641311014611	-0.2191459884049183	0.5401790286139413	0.5401790286139427	0.0844299554534309	0.17452878065658	0.20209408923974	0.03158479688644299	0.3331910885828079	0.1793475647524687	0.3369518772259423	-1.756030250912557	0.04075951139228398	-0.4206057116681444	0.7910929872098347	-1.970801271987118	-1.970801271987162	0.2392853921579906	4.848340518519435e-05	-0.6443023427442329	-0.1111723526990072	-0.0328458168896699	-0.03946753860004466	0.005664215235664658	-0.3049554629922362	0.102191811449237	-0.02325865299559468	0.08674561588190922	-39.07576157454031	-7.620937450537066	-6.439623047259258	-4.219991315718696	-2.257544049346727	-627.3375509522664	58.17901168800485	-0.10663562332901	0.1931831735150788	-0.9258334510738669	0.5227648582823086	0.05993749832918844	-0.2414686112265164	0.654173705957612	0.4966239740022373	0.4966239739981259	0.4383231544875832	0.02135262517303321	0.02383707693981043	0.1263537741900343	2.231439424333244e-07	6.626187193481684e-08	-2.37308271858746e-06	8.28643556622713e-07	2.08911037361446e-07	1.599337175816863e-07	-1.50485008024849e-06
